<?xml version="1.0" encoding="UTF-8" standalone="no"?>
<!DOCTYPE svg PUBLIC "-//W3C//DTD SVG 1.1//EN"
 "http://www.w3.org/Graphics/SVG/1.1/DTD/svg11.dtd">
<!-- Generated by graphviz version 2.40.1 (20161225.0304)
 -->
<!-- Title: dependencies Pages: 1 -->
<svg width="504pt" height="211pt"
 viewBox="0.00 0.00 504.00 211.00" xmlns="http://www.w3.org/2000/svg" xmlns:xlink="http://www.w3.org/1999/xlink">
<g id="graph0" class="graph" transform="scale(1 1) rotate(0) translate(4 207)">
<title>dependencies</title>
<polygon fill="#ffffff" stroke="transparent" points="-4,4 -4,-207 500,-207 500,4 -4,4"/>
<text text-anchor="start" x="227.0091" y="-42.4" font-family="sans-serif" font-weight="bold" font-size="14.00" fill="#000000">Legend</text>
<polygon fill="#ffffb3" stroke="transparent" points="14,-10 14,-30 34,-30 34,-10 14,-10"/>
<text text-anchor="start" x="37.629" y="-15.4" font-family="sans-serif" font-size="14.00" fill="#000000"> &#160;Declarations</text>
<polygon fill="#8dd3c7" stroke="transparent" points="127,-10 127,-30 147,-30 147,-10 127,-10"/>
<text text-anchor="start" x="150.7251" y="-15.4" font-family="sans-serif" font-size="14.00" fill="#000000"> &#160;Module</text>
<polygon fill="#80b1d3" stroke="transparent" points="213,-10 213,-30 233,-30 233,-10 213,-10"/>
<text text-anchor="start" x="236.7812" y="-15.4" font-family="sans-serif" font-size="14.00" fill="#000000"> &#160;Bootstrap</text>
<polygon fill="#fdb462" stroke="transparent" points="310,-10 310,-30 330,-30 330,-10 310,-10"/>
<text text-anchor="start" x="333.6732" y="-15.4" font-family="sans-serif" font-size="14.00" fill="#000000"> &#160;Providers</text>
<polygon fill="#fb8072" stroke="transparent" points="406,-10 406,-30 426,-30 426,-10 406,-10"/>
<text text-anchor="start" x="429.7258" y="-15.4" font-family="sans-serif" font-size="14.00" fill="#000000"> &#160;Exports</text>
<g id="clust1" class="cluster">
<title>cluster_TaskModule</title>
<polygon fill="none" stroke="#000000" stroke-dasharray="1,5" points="58,-70 58,-195 438,-195 438,-70 58,-70"/>
</g>
<g id="clust3" class="cluster">
<title>cluster_TaskModule_imports</title>
<polygon fill="none" stroke="#000000" points="208,-78 208,-130 430,-130 430,-78 208,-78"/>
</g>
<g id="clust6" class="cluster">
<title>cluster_TaskModule_providers</title>
<polygon fill="none" stroke="#000000" points="66,-78 66,-130 200,-130 200,-78 66,-78"/>
</g>
<!-- AuthModule -->
<g id="node1" class="node">
<title>AuthModule</title>
<polygon fill="#8dd3c7" stroke="#000000" points="421.5482,-122 418.5482,-126 397.5482,-126 394.5482,-122 334.4518,-122 334.4518,-86 421.5482,-86 421.5482,-122"/>
<text text-anchor="middle" x="378" y="-99.8" font-family="Times,serif" font-size="14.00" fill="#000000">AuthModule</text>
</g>
<!-- TaskModule -->
<g id="node3" class="node">
<title>TaskModule</title>
<polygon fill="#8dd3c7" stroke="#000000" points="309.2619,-187 306.2619,-191 285.2619,-191 282.2619,-187 222.7381,-187 222.7381,-151 309.2619,-151 309.2619,-187"/>
<text text-anchor="middle" x="266" y="-164.8" font-family="Times,serif" font-size="14.00" fill="#000000">TaskModule</text>
</g>
<!-- AuthModule&#45;&gt;TaskModule -->
<g id="edge1" class="edge">
<title>AuthModule&#45;&gt;TaskModule</title>
<path fill="none" stroke="#000000" d="M378,-122.1061C378,-141.3391 378,-169 378,-169 378,-169 319.3021,-169 319.3021,-169"/>
<polygon fill="#000000" stroke="#000000" points="319.3022,-165.5001 309.3021,-169 319.3021,-172.5001 319.3022,-165.5001"/>
</g>
<!-- LoggerModule -->
<g id="node2" class="node">
<title>LoggerModule</title>
<polygon fill="#8dd3c7" stroke="#000000" points="315.9776,-122 312.9776,-126 291.9776,-126 288.9776,-122 216.0224,-122 216.0224,-86 315.9776,-86 315.9776,-122"/>
<text text-anchor="middle" x="266" y="-99.8" font-family="Times,serif" font-size="14.00" fill="#000000">LoggerModule</text>
</g>
<!-- LoggerModule&#45;&gt;TaskModule -->
<g id="edge2" class="edge">
<title>LoggerModule&#45;&gt;TaskModule</title>
<path fill="none" stroke="#000000" d="M266,-122.1061C266,-122.1061 266,-140.991 266,-140.991"/>
<polygon fill="#000000" stroke="#000000" points="262.5001,-140.9909 266,-150.991 269.5001,-140.991 262.5001,-140.9909"/>
</g>
<!-- TaskService -->
<g id="node4" class="node">
<title>TaskService</title>
<ellipse fill="#fdb462" stroke="#000000" cx="133" cy="-104" rx="58.5251" ry="18"/>
<text text-anchor="middle" x="133" y="-99.8" font-family="Times,serif" font-size="14.00" fill="#000000">TaskService</text>
</g>
<!-- TaskService&#45;&gt;TaskModule -->
<g id="edge3" class="edge">
<title>TaskService&#45;&gt;TaskModule</title>
<path fill="none" stroke="#000000" d="M133,-122.1061C133,-141.3391 133,-169 133,-169 133,-169 212.4508,-169 212.4508,-169"/>
<polygon fill="#000000" stroke="#000000" points="212.4509,-172.5001 222.4508,-169 212.4508,-165.5001 212.4509,-172.5001"/>
</g>
</g>
</svg>
