<?xml version="1.0" encoding="UTF-8" standalone="no"?>
<!DOCTYPE svg PUBLIC "-//W3C//DTD SVG 1.1//EN"
 "http://www.w3.org/Graphics/SVG/1.1/DTD/svg11.dtd">
<!-- Generated by graphviz version 2.40.1 (20161225.0304)
 -->
<!-- Title: dependencies Pages: 1 -->
<svg width="504pt" height="211pt"
 viewBox="0.00 0.00 504.00 211.00" xmlns="http://www.w3.org/2000/svg" xmlns:xlink="http://www.w3.org/1999/xlink">
<g id="graph0" class="graph" transform="scale(1 1) rotate(0) translate(4 207)">
<title>dependencies</title>
<polygon fill="#ffffff" stroke="transparent" points="-4,4 -4,-207 500,-207 500,4 -4,4"/>
<text text-anchor="start" x="227.0091" y="-42.4" font-family="sans-serif" font-weight="bold" font-size="14.00" fill="#000000">Legend</text>
<polygon fill="#ffffb3" stroke="transparent" points="14,-10 14,-30 34,-30 34,-10 14,-10"/>
<text text-anchor="start" x="37.629" y="-15.4" font-family="sans-serif" font-size="14.00" fill="#000000"> &#160;Declarations</text>
<polygon fill="#8dd3c7" stroke="transparent" points="127,-10 127,-30 147,-30 147,-10 127,-10"/>
<text text-anchor="start" x="150.7251" y="-15.4" font-family="sans-serif" font-size="14.00" fill="#000000"> &#160;Module</text>
<polygon fill="#80b1d3" stroke="transparent" points="213,-10 213,-30 233,-30 233,-10 213,-10"/>
<text text-anchor="start" x="236.7812" y="-15.4" font-family="sans-serif" font-size="14.00" fill="#000000"> &#160;Bootstrap</text>
<polygon fill="#fdb462" stroke="transparent" points="310,-10 310,-30 330,-30 330,-10 310,-10"/>
<text text-anchor="start" x="333.6732" y="-15.4" font-family="sans-serif" font-size="14.00" fill="#000000"> &#160;Providers</text>
<polygon fill="#fb8072" stroke="transparent" points="406,-10 406,-30 426,-30 426,-10 406,-10"/>
<text text-anchor="start" x="429.7258" y="-15.4" font-family="sans-serif" font-size="14.00" fill="#000000"> &#160;Exports</text>
<g id="clust1" class="cluster">
<title>cluster_AppModule</title>
<polygon fill="none" stroke="#000000" stroke-dasharray="1,5" points="20,-70 20,-195 476,-195 476,-70 20,-70"/>
</g>
<g id="clust3" class="cluster">
<title>cluster_AppModule_imports</title>
<polygon fill="none" stroke="#000000" points="28,-78 28,-130 468,-130 468,-78 28,-78"/>
</g>
<!-- AuthModule -->
<g id="node1" class="node">
<title>AuthModule</title>
<polygon fill="#8dd3c7" stroke="#000000" points="459.5482,-122 456.5482,-126 435.5482,-126 432.5482,-122 372.4518,-122 372.4518,-86 459.5482,-86 459.5482,-122"/>
<text text-anchor="middle" x="416" y="-99.8" font-family="Times,serif" font-size="14.00" fill="#000000">AuthModule</text>
</g>
<!-- AppModule -->
<g id="node5" class="node">
<title>AppModule</title>
<polygon fill="#8dd3c7" stroke="#000000" points="289.6571,-187 286.6571,-191 265.6571,-191 262.6571,-187 206.3429,-187 206.3429,-151 289.6571,-151 289.6571,-187"/>
<text text-anchor="middle" x="248" y="-164.8" font-family="Times,serif" font-size="14.00" fill="#000000">AppModule</text>
</g>
<!-- AuthModule&#45;&gt;AppModule -->
<g id="edge1" class="edge">
<title>AuthModule&#45;&gt;AppModule</title>
<path fill="none" stroke="#000000" d="M416,-122.1061C416,-141.3391 416,-169 416,-169 416,-169 299.9601,-169 299.9601,-169"/>
<polygon fill="#000000" stroke="#000000" points="299.9602,-165.5001 289.9601,-169 299.9601,-172.5001 299.9602,-165.5001"/>
</g>
<!-- HealthModule -->
<g id="node2" class="node">
<title>HealthModule</title>
<polygon fill="#8dd3c7" stroke="#000000" points="354.3669,-122 351.3669,-126 330.3669,-126 327.3669,-122 257.6331,-122 257.6331,-86 354.3669,-86 354.3669,-122"/>
<text text-anchor="middle" x="306" y="-99.8" font-family="Times,serif" font-size="14.00" fill="#000000">HealthModule</text>
</g>
<!-- HealthModule&#45;&gt;AppModule -->
<g id="edge2" class="edge">
<title>HealthModule&#45;&gt;AppModule</title>
<path fill="none" stroke="#000000" d="M273.6974,-122.1061C273.6974,-122.1061 273.6974,-140.991 273.6974,-140.991"/>
<polygon fill="#000000" stroke="#000000" points="270.1975,-140.9909 273.6974,-150.991 277.1975,-140.991 270.1975,-140.9909"/>
</g>
<!-- LoggerModule -->
<g id="node3" class="node">
<title>LoggerModule</title>
<polygon fill="#8dd3c7" stroke="#000000" points="239.9776,-122 236.9776,-126 215.9776,-126 212.9776,-122 140.0224,-122 140.0224,-86 239.9776,-86 239.9776,-122"/>
<text text-anchor="middle" x="190" y="-99.8" font-family="Times,serif" font-size="14.00" fill="#000000">LoggerModule</text>
</g>
<!-- LoggerModule&#45;&gt;AppModule -->
<g id="edge3" class="edge">
<title>LoggerModule&#45;&gt;AppModule</title>
<path fill="none" stroke="#000000" d="M223.0803,-122.1061C223.0803,-122.1061 223.0803,-140.991 223.0803,-140.991"/>
<polygon fill="#000000" stroke="#000000" points="219.5804,-140.9909 223.0803,-150.991 226.5804,-140.991 219.5804,-140.9909"/>
</g>
<!-- TaskModule -->
<g id="node4" class="node">
<title>TaskModule</title>
<polygon fill="#8dd3c7" stroke="#000000" points="122.2619,-122 119.2619,-126 98.2619,-126 95.2619,-122 35.7381,-122 35.7381,-86 122.2619,-86 122.2619,-122"/>
<text text-anchor="middle" x="79" y="-99.8" font-family="Times,serif" font-size="14.00" fill="#000000">TaskModule</text>
</g>
<!-- TaskModule&#45;&gt;AppModule -->
<g id="edge4" class="edge">
<title>TaskModule&#45;&gt;AppModule</title>
<path fill="none" stroke="#000000" d="M79,-122.1061C79,-141.3391 79,-169 79,-169 79,-169 196.2247,-169 196.2247,-169"/>
<polygon fill="#000000" stroke="#000000" points="196.2247,-172.5001 206.2247,-169 196.2247,-165.5001 196.2247,-172.5001"/>
</g>
</g>
</svg>
